<svg width="45" height="45" viewBox="0 0 45 45" fill="none" xmlns="http://www.w3.org/2000/svg">
<rect width="45" height="45" rx="10" fill="#7358D4" fill-opacity="0.1"/>
<g clip-path="url(#clip0)">
<path d="M13 37V16.75C13 16.392 13.1422 16.0486 13.3954 15.7954C13.6486 15.5422 13.992 15.4 14.35 15.4H19.75V10H33.25V15.4H38.65C39.008 15.4 39.3514 15.5422 39.6046 15.7954C39.8578 16.0486 40 16.392 40 16.75V37H29.2V30.25H23.8V37H13ZM22.45 12.7V20.8H25.15V18.1H27.85V20.8H30.55V12.7H27.85V15.4H25.15V12.7H22.45ZM15.7 34.3H21.1V30.25H15.7V34.3ZM15.7 27.55H21.1V23.5H15.7V27.55ZM31.9 34.3H37.3V30.25H31.9V34.3ZM31.9 27.55H37.3V23.5H31.9V27.55ZM23.8 27.55H29.2V23.5H23.8V27.55Z" fill="#7358D4"/>
</g>
<defs>
<clipPath id="clip0">
<rect x="11" y="11" width="24" height="24" fill="white"/>
</clipPath>
</defs>
</svg>
